# xmcd CD database file
#
# Track frame offsets:
#	150
#	27292
#	39962
#	72117
#	82200
#	102820
#	121285
#	137357
#	182725
#	191282
#	204840
#	206600
#	223687
#	230850
#	238205
#	249202
#	250127
#	268950
#	280872
#	301312
#	305602
#
# Disc length: 4500 seconds
#
# Revision: 8
# Processed by: cddbd v1.5.2PL0 Copyright (c) Steve Scherf et al.
# Submitted via: CDex 1.70beta2
#
DISCID=2d119215
DTITLE=The Who - Tommy [MFSL]
DYEAR=1969
DGENRE=Rock
TTITLE0=Overture - It's a boy
TTITLE1=You didn't hear it
TTITLE2=Amazing journey - Sparks
TTITLE3=Eyesight to the blind
TTITLE4=Christmas
TTITLE5=Cousin Kevin
TTITLE6=The acid queen
TTITLE7=Underture
TTITLE8=Do you think it's alright - Fiddle about
TTITLE9=Pinball wizard
TTITLE10=There's a doctor I've found
TTITLE11=Go to the mirror boy
TTITLE12=Tommy can you hear me
TTITLE13=Smash the mirror
TTITLE14=Sensation
TTITLE15=Miracle cure
TTITLE16=Sally Simpson
TTITLE17=I'm free
TTITLE18=Welcome
TTITLE19=Tommy's holiday camp
TTITLE20=We're not gonna take it
EXTD=YEAR: 1969
EXTT0=
EXTT1=
EXTT2=
EXTT3=
EXTT4=
EXTT5=
EXTT6=
EXTT7=
EXTT8=
EXTT9=
EXTT10=
EXTT11=
EXTT12=
EXTT13=
EXTT14=
EXTT15=
EXTT16=
EXTT17=
EXTT18=
EXTT19=
EXTT20=
PLAYORDER=
